<mxfile host="app.diagrams.net" modified="2023-07-17T15:38:30.189Z" agent="Mozilla/5.0 (Windows NT 10.0; Win64; x64) AppleWebKit/537.36 (KHTML, like Gecko) Chrome/114.0.0.0 Safari/537.36" version="21.6.2" etag="xfBA6I5LE02HRFAnuhh5" type="github">
  <diagram name="Page-1" id="lQzzr_8YkUuKzq68Tiyp">
    <mxGraphModel>
      <root>
        <mxCell id="0" />
        <mxCell id="1" parent="0" />
      </root>
    </mxGraphModel>
  </diagram>
</mxfile>
